<?xml version="1.0"?>
<svg version="1.1" xmlns="http://www.w3.org/2000/svg" xmlns:xlink="http://www.w3.org/1999/xlink" width="50" height="50">
    <desc iVinci="yes" version="4.6" gridStep="20" showGrid="no" snapToGrid="no" codePlatform="0"/>
    <g id="Layer1" name="Layer 1" opacity="1">
        <g id="Shape1">
            <desc shapeID="1" type="0" basicInfo-basicType="4" basicInfo-roundedRectRadius="12" basicInfo-polygonSides="6" basicInfo-starPoints="5" bounding="rect(-24.6573,-24.6573,49.3147,49.3146)" text="" font-familyName="Helvetica" font-pixelSize="20" font-bold="0" font-underline="0" font-alignment="1" strokeStyle="0" markerStart="0" markerEnd="0" shadowEnabled="0" shadowOffsetX="0" shadowOffsetY="2" shadowBlur="4" shadowOpacity="160" blurEnabled="0" blurRadius="4" transform="matrix(1,0,0,1,24.9999,24.9999)" pers-center="0,0" pers-size="0,0" pers-start="0,0" pers-end="0,0" locked="0" mesh="" flag=""/>
            <path id="shapePath1" d="M0.342648,25 C0.342648,11.3821 11.3821,0.342651 25,0.342651 C38.6179,0.342655 49.6573,11.3821 49.6573,25 C49.6573,38.6179 38.6179,49.6573 25,49.6573 C11.3821,49.6573 0.342644,38.6179 0.342648,25 Z" style="stroke:none;fill-rule:evenodd;fill:#000000;fill-opacity:1;"/>
        </g>
        <g id="Shape2">
            <desc shapeID="2" type="0" basicInfo-basicType="0" basicInfo-roundedRectRadius="12" basicInfo-polygonSides="6" basicInfo-starPoints="5" bounding="rect(-39.598,-20.0427,79.1959,40.0853)" text="" font-familyName="Helvetica" font-pixelSize="20" font-bold="0" font-underline="0" font-alignment="1" strokeStyle="0" markerStart="0" markerEnd="0" shadowEnabled="0" shadowOffsetX="0" shadowOffsetY="2" shadowBlur="4" shadowOpacity="160" blurEnabled="0" blurRadius="4" transform="matrix(0.0752514,0,0,0.0748275,15.0459,25.6041)" pers-center="0,0" pers-size="0,0" pers-start="0,0" pers-end="0,0" locked="0" mesh="" flag=""/>
            <path id="shapePath2" d="M18.0257,24.5148 C16.5213,23.882 14.8434,24.1696 14.8434,24.1696 C14.8434,24.1696 13.3969,24.86 13.3969,24.86 C13.3969,24.86 12.4132,26.1258 12.4132,26.1258 C12.4132,26.1258 12.0661,27.1039 12.0661,27.1039 C12.0661,27.1039 14.5541,26.9313 14.5541,26.9313 C14.5541,26.9313 16.9263,25.9532 16.9263,25.9532 C16.9263,25.9532 17.6785,25.3779 17.6785,25.3779 C17.6785,25.3779 18.0257,24.5148 18.0257,24.5148 Z" style="stroke:#323232;stroke-opacity:1;stroke-width:1;stroke-linejoin:miter;stroke-miterlimit:2;stroke-linecap:round;fill-rule:evenodd;fill:#ffffff;fill-opacity:0.501961;"/>
        </g>
        <g id="Shape3">
            <desc shapeID="3" type="0" basicInfo-basicType="0" basicInfo-roundedRectRadius="12" basicInfo-polygonSides="6" basicInfo-starPoints="5" bounding="rect(-43.4424,-17.3001,86.8848,34.6002)" text="" font-familyName="Helvetica" font-pixelSize="20" font-bold="0" font-underline="0" font-alignment="1" strokeStyle="0" markerStart="0" markerEnd="0" shadowEnabled="0" shadowOffsetX="0" shadowOffsetY="2" shadowBlur="4" shadowOpacity="160" blurEnabled="0" blurRadius="4" transform="matrix(0.0752514,0,0,0.0748275,28.5852,20.5737)" pers-center="0,0" pers-size="0,0" pers-start="0,0" pers-end="0,0" locked="0" mesh="" flag=""/>
            <path id="shapePath3" d="M25.3161,21.5806 C26.4733,20.1997 27.5148,19.4518 27.5148,19.4518 C27.5148,19.4518 29.8292,19.2792 29.8292,19.2792 C29.8292,19.2792 31.8543,19.6819 31.8543,19.6819 C31.8543,19.6819 30.0027,21.1203 30.0027,21.1203 C30.0027,21.1203 28.0934,21.7532 28.0934,21.7532 C28.0934,21.7532 26.7047,21.8682 26.7047,21.8682 C26.7047,21.8682 25.3161,21.5806 25.3161,21.5806 Z" style="stroke:#323232;stroke-opacity:1;stroke-width:1;stroke-linejoin:miter;stroke-miterlimit:2;stroke-linecap:round;fill-rule:evenodd;fill:#ffffff;fill-opacity:0.501961;"/>
        </g>
        <g id="Shape4">
            <desc shapeID="4" type="0" basicInfo-basicType="0" basicInfo-roundedRectRadius="12" basicInfo-polygonSides="6" basicInfo-starPoints="5" bounding="rect(-80.7337,-25.7579,161.467,51.5158)" text="" font-familyName="Helvetica" font-pixelSize="20" font-bold="0" font-underline="0" font-alignment="1" strokeStyle="0" markerStart="0" markerEnd="0" shadowEnabled="0" shadowOffsetX="0" shadowOffsetY="2" shadowBlur="4" shadowOpacity="160" blurEnabled="0" blurRadius="4" transform="matrix(0.0752514,0,0,0.0748275,28.1512,17.4669)" pers-center="0,0" pers-size="0,0" pers-start="0,0" pers-end="0,0" locked="0" mesh="" flag=""/>
            <path id="shapePath4" d="M22.0759,19.1641 C22.9438,17.7258 23.6381,17.208 23.6381,17.208 C23.6381,17.208 24.6217,16.9203 24.6217,16.9203 C24.6217,16.9203 25.9525,16.1724 25.9525,16.1724 C25.9525,16.1724 27.8619,15.5395 27.8619,15.5395 C27.8619,15.5395 30.4078,15.597 30.4078,15.597 C30.4078,15.597 33.3586,16.4025 33.3586,16.4025 C33.3586,16.4025 34.2265,17.3806 34.2265,17.3806 C34.2265,17.3806 32.375,16.8628 32.375,16.8628 C32.375,16.8628 30.4656,16.8052 30.4656,16.8052 C30.4656,16.8052 28.2669,17.208 28.2669,17.208 C28.2669,17.208 25.6054,18.5313 25.5475,18.5313 C25.4896,18.5313 23.5803,19.3943 23.5224,19.3943 C23.4645,19.3943 22.0759,19.1641 22.0759,19.1641 Z" style="stroke:#323232;stroke-opacity:1;stroke-width:1;stroke-linejoin:miter;stroke-miterlimit:2;stroke-linecap:round;fill-rule:evenodd;fill:#ffffff;fill-opacity:0.501961;"/>
        </g>
        <g id="Shape5">
            <desc shapeID="5" type="0" basicInfo-basicType="0" basicInfo-roundedRectRadius="12" basicInfo-polygonSides="6" basicInfo-starPoints="5" bounding="rect(-63.8181,-37.2913,127.636,74.5826)" text="" font-familyName="Helvetica" font-pixelSize="20" font-bold="0" font-underline="0" font-alignment="1" strokeStyle="0" markerStart="0" markerEnd="0" shadowEnabled="0" shadowOffsetX="0" shadowOffsetY="2" shadowBlur="4" shadowOpacity="160" blurEnabled="0" blurRadius="4" transform="matrix(0.0752514,0,0,0.0748275,14.3226,23.5655)" pers-center="0,0" pers-size="0,0" pers-start="0,0" pers-end="0,0" locked="0" mesh="" flag=""/>
            <path id="shapePath5" d="M17.3314,21.1203 C17.3314,21.1203 15.422,20.7751 15.422,20.7751 C15.422,20.7751 12.7025,21.4655 12.7025,21.4655 C12.7025,21.4655 10.5039,22.4436 10.5039,22.4436 C10.5039,22.4436 9.57809,23.882 9.57809,23.882 C9.57809,23.882 9.52023,24.9176 9.52023,24.9176 C9.52023,24.9176 9.69381,26.3559 9.69381,26.3559 C9.69381,26.3559 11.0246,24.5724 11.0246,24.5724 C11.0246,24.5724 12.9918,22.4436 12.9918,22.4436 C12.9918,22.4436 16.0584,22.0984 16.0584,22.0984 C16.0584,22.0984 18.1993,22.6162 18.1993,22.6162 C18.1993,22.6162 19.125,21.9258 19.125,21.9258 C19.125,21.9258 17.3314,21.1203 17.3314,21.1203 Z" style="stroke:#323232;stroke-opacity:1;stroke-width:1;stroke-linejoin:miter;stroke-miterlimit:2;stroke-linecap:round;fill-rule:evenodd;fill:#ffffff;fill-opacity:0.501961;"/>
        </g>
        <g id="Shape6">
            <desc shapeID="6" type="0" basicInfo-basicType="0" basicInfo-roundedRectRadius="12" basicInfo-polygonSides="6" basicInfo-starPoints="5" bounding="rect(-92.2671,-40.3669,184.534,80.7337)" text="" font-familyName="Helvetica" font-pixelSize="20" font-bold="0" font-underline="0" font-alignment="1" strokeStyle="0" markerStart="0" markerEnd="0" shadowEnabled="0" shadowOffsetX="0" shadowOffsetY="2" shadowBlur="4" shadowOpacity="160" blurEnabled="0" blurRadius="4" transform="matrix(0.0752514,0,0,0.0748275,25.779,35.6477)" pers-center="0,0" pers-size="0,0" pers-start="0,0" pers-end="0,0" locked="0" mesh="" flag=""/>
            <path id="shapePath6" d="M32.5486,33.6052 C32.5486,33.6052 30.6392,35.6765 30.6392,35.6765 C30.6392,35.6765 27.4569,37.1724 27.4569,37.1724 C27.4569,37.1724 24.7375,38.208 24.7375,38.208 C24.7375,38.208 22.4809,38.6682 22.4809,38.6682 C22.4809,38.6682 19.3565,38.1504 19.3565,38.1504 C19.3565,38.1504 18.8357,37.5176 18.8357,37.5176 C18.8357,37.5176 20.1087,37.5176 20.1087,37.5176 C20.1087,37.5176 21.2659,36.3093 21.2659,36.3093 C21.2659,36.3093 22.4809,35.5039 22.4809,35.5039 C22.4809,35.5039 23.5224,35.2737 23.5224,35.2737 C23.5224,35.2737 24.2746,35.2737 24.2746,35.2737 C24.2746,35.2737 25.9525,34.4682 25.9525,34.4682 C25.9525,34.4682 27.8619,34.0655 27.8619,34.0655 C27.8619,34.0655 29.6556,33.8929 29.6556,33.8929 C29.6556,33.8929 31.3914,33.5477 31.3914,33.5477 C31.3914,33.5477 32.7222,32.6271 32.7222,32.6271 C32.7222,32.6271 32.5486,33.6052 32.5486,33.6052 Z" style="stroke:#323232;stroke-opacity:1;stroke-width:1;stroke-linejoin:miter;stroke-miterlimit:2;stroke-linecap:round;fill-rule:evenodd;fill:#ffffff;fill-opacity:0.501961;"/>
        </g>
        <g id="Shape7">
            <desc shapeID="7" type="0" basicInfo-basicType="0" basicInfo-roundedRectRadius="12" basicInfo-polygonSides="6" basicInfo-starPoints="5" bounding="rect(-58.4358,-76.5048,116.872,153.01)" text="" font-familyName="Helvetica" font-pixelSize="20" font-bold="0" font-underline="0" font-alignment="1" strokeStyle="0" markerStart="0" markerEnd="0" shadowEnabled="0" shadowOffsetX="0" shadowOffsetY="2" shadowBlur="4" shadowOpacity="160" blurEnabled="0" blurRadius="4" transform="matrix(0.0752514,0,0,0.0748275,23.0306,26.2984)" pers-center="0,0" pers-size="0,0" pers-start="0,0" pers-end="0,0" locked="0" mesh="" flag=""/>
            <path id="shapePath7" d="M23.0306,20.9189 C22.9727,23.1052 23.4636,24.004 24.1878,25.3491 C24.5488,26.0196 26.0972,26.6148 26.0972,26.6148 C26.0972,26.6148 27.428,27.7655 27.428,27.7655 C27.428,27.7655 27.1387,29.6066 27.1387,29.6066 C27.1387,29.6066 25.8079,30.5847 25.8079,30.5847 C25.8079,30.5847 23.8985,31.2176 23.8985,31.2176 C23.8985,31.2176 23.4192,31.7662 23.0884,31.7929 C22.6263,31.8302 21.7577,31.3902 21.7577,31.3902 C21.7577,31.3902 20.1954,31.1025 20.1954,31.1025 C20.1954,31.1025 19.7904,32.023 19.7904,32.023 C19.7904,32.023 18.6332,31.2751 18.6332,31.2751 C18.6332,31.2751 18.7489,29.8367 18.7489,29.8367 C18.7489,29.8367 19.154,27.7655 19.154,27.7655 C19.154,27.7655 19.7904,25.5217 19.7904,25.5217 C19.7904,25.5217 19.4433,23.3929 19.4433,23.3929 C19.4433,23.3929 18.9225,21.7819 18.9225,21.7819 C18.9225,21.7819 19.9061,20.5737 19.9061,20.5737 C19.9061,20.5737 21.2948,20.6313 21.2948,20.6313 C21.2948,20.6313 23.0306,20.9189 23.0306,20.9189 Z" style="stroke:#323232;stroke-opacity:1;stroke-width:1;stroke-linejoin:miter;stroke-miterlimit:2;stroke-linecap:round;fill-rule:evenodd;fill:#ffffff;fill-opacity:0.501961;"/>
        </g>
        <g id="Shape8">
            <desc shapeID="8" type="0" basicInfo-basicType="0" basicInfo-roundedRectRadius="12" basicInfo-polygonSides="6" basicInfo-starPoints="5" bounding="rect(-39.598,-98.4182,79.1959,196.836)" text="" font-familyName="Helvetica" font-pixelSize="20" font-bold="0" font-underline="0" font-alignment="1" strokeStyle="0" markerStart="0" markerEnd="0" shadowEnabled="0" shadowOffsetX="0" shadowOffsetY="2" shadowBlur="4" shadowOpacity="160" blurEnabled="0" blurRadius="4" transform="matrix(0.0752514,0,0,0.0748275,44.2653,24.3422)" pers-center="0,0" pers-size="0,0" pers-start="0,0" pers-end="0,0" locked="0" mesh="" flag=""/>
            <path id="shapePath8" d="M42.0955,17.8409 C42.0955,17.8409 43.8892,16.9778 43.8892,16.9778 C43.8892,16.9778 45.625,17.4957 45.625,17.4957 C45.625,17.4957 46.6665,19.6244 46.6665,19.6244 C46.6665,19.6244 47.2451,22.0984 47.2451,22.0984 C47.2451,22.0984 47.1872,24.2272 47.1872,24.2272 C47.1872,24.2272 47.1294,26.7587 47.1294,26.7587 C47.1294,26.7587 46.7822,28.945 46.7822,28.945 C46.7822,28.945 45.7986,30.9011 45.7986,30.9011 C45.7986,30.9011 45.1621,31.5915 45.1621,31.5915 C45.1621,31.5915 44.4099,31.4765 44.4099,31.4765 C44.4099,31.4765 43.8313,31.7066 43.8313,31.7066 C43.8313,31.7066 43.6577,24.2847 43.6577,24.2847 C43.6577,24.2847 42.9056,23.3066 42.9056,23.3066 C42.9056,23.3066 42.5005,22.271 42.5005,22.271 C42.5005,22.271 41.4591,20.4874 41.4591,20.4874 C41.4591,20.4874 41.2855,18.8765 41.2855,18.8765 C41.2855,18.8765 42.0955,17.8409 42.0955,17.8409 Z" style="stroke:#323232;stroke-opacity:1;stroke-width:1;stroke-linejoin:miter;stroke-miterlimit:2;stroke-linecap:round;fill-rule:evenodd;fill:#ffffff;fill-opacity:0.501961;"/>
        </g>
        <g id="Shape9">
            <desc shapeID="9" type="0" basicInfo-basicType="0" basicInfo-roundedRectRadius="12" basicInfo-polygonSides="6" basicInfo-starPoints="5" bounding="rect(-247.968,-182.612,495.936,365.224)" text="" font-familyName="Helvetica" font-pixelSize="20" font-bold="0" font-underline="0" font-alignment="1" strokeStyle="0" markerStart="0" markerEnd="0" shadowEnabled="0" shadowOffsetX="0" shadowOffsetY="2" shadowBlur="4" shadowOpacity="160" blurEnabled="0" blurRadius="4" transform="matrix(0.0752514,0,0,0.0748275,23.0306,15.5395)" pers-center="0,0" pers-size="0,0" pers-start="0,0" pers-end="0,0" locked="0" mesh="" flag=""/>
            <path id="shapePath9" d="M8.30517,29.2039 C8.30517,29.2039 7.49512,22.8176 7.49512,22.8176 C7.49512,22.8176 6.56936,17.4094 6.56936,17.4094 C6.56936,17.4094 6.5115,13.6696 6.5115,13.6696 C6.5115,13.6696 7.78442,10.045 7.78442,10.045 C7.78442,10.045 10.9667,7.28332 10.9667,7.28332 C10.9667,7.28332 16.2899,4.80934 16.2899,4.80934 C16.2899,4.80934 22.5966,2.79565 22.5966,2.79565 C22.5966,2.79565 27.6305,2.79565 27.6305,2.79565 C27.6305,2.79565 30.3499,4.46414 30.3499,4.46414 C30.3499,4.46414 31.3914,7.22578 31.3914,7.22578 C31.3914,7.22578 33.3586,10.5628 33.3586,10.5628 C33.3586,10.5628 34.9188,12.1255 35.6152,12.9792 C36.3298,13.8553 37.5824,15.7409 37.5824,15.7409 C37.5824,15.7409 39.839,17.6395 39.839,17.6395 C39.839,17.6395 39.7233,16.0861 39.7233,16.0861 C39.7233,16.0861 40.4754,14.8778 40.4754,14.8778 C40.4754,14.8778 41.6905,14.3025 41.6905,14.3025 C41.6905,14.3025 40.9383,11.6559 40.9383,11.6559 C40.9383,11.6559 38.9711,7.80113 38.9711,7.80113 C38.9711,7.80113 36.7724,5.72989 36.7724,5.72989 C36.7724,5.72989 32.5486,3.25592 32.5486,3.25592 C32.5486,3.25592 26.7047,1.8751 26.7047,1.8751 C26.7047,1.8751 20.9765,1.99017 20.9765,1.99017 C20.9765,1.99017 16.4056,2.91071 16.4056,2.91071 C16.4056,2.91071 12.7025,4.46414 12.7025,4.46414 C12.7025,4.46414 9.40451,6.82304 9.40451,6.82304 C9.40451,6.82304 6.68508,9.46962 6.68508,9.46962 C6.68508,9.46962 4.71783,11.8861 4.71783,11.8861 C4.71783,11.8861 4.37067,12.4039 4.37067,12.4039 C4.37067,12.4039 4.37067,15.971 4.37067,15.971 C4.37067,15.971 4.83355,18.9628 4.83355,18.9628 C4.83355,18.9628 5.47001,21.8395 5.47001,21.8395 C5.47001,21.8395 6.56936,24.7737 6.56936,24.7737 C6.56936,24.7737 7.14796,25.9244 7.14796,25.9244 C7.14796,25.9244 7.32154,27.5929 7.32154,27.5929 C7.32154,27.5929 7.61084,28.6285 7.61084,28.6285 C7.61084,28.6285 8.30517,29.2039 8.30517,29.2039 Z" style="stroke:#323232;stroke-opacity:1;stroke-width:1;stroke-linejoin:miter;stroke-miterlimit:2;stroke-linecap:round;fill-rule:evenodd;fill:#ffffff;fill-opacity:0.501961;"/>
        </g>
        <g id="Shape10">
            <desc shapeID="10" type="0" basicInfo-basicType="0" basicInfo-roundedRectRadius="12" basicInfo-polygonSides="6" basicInfo-starPoints="5" bounding="rect(-220.672,-194.914,441.344,389.828)" text="" font-familyName="Helvetica" font-pixelSize="20" font-bold="0" font-underline="0" font-alignment="1" strokeStyle="0" markerStart="0" markerEnd="0" shadowEnabled="0" shadowOffsetX="0" shadowOffsetY="2" shadowBlur="4" shadowOpacity="160" blurEnabled="0" blurRadius="4" transform="matrix(0.0752514,0,0,0.0748275,26.0683,35.0724)" pers-center="0,0" pers-size="0,0" pers-start="0,0" pers-end="0,0" locked="0" mesh="" flag=""/>
            <path id="shapePath10" d="M9.46237,33.145 C10.5617,34.6984 11.6032,37.0573 11.6032,37.0573 C11.6032,37.0573 12.934,40.6819 12.934,40.6819 C12.934,40.6819 13.3969,42.2929 13.3969,42.2929 C13.3969,42.2929 15.3063,45.0546 15.3063,45.0546 C15.3063,45.0546 17.6785,47.2409 17.6785,47.2409 C17.6785,47.2409 19.5879,48.8518 19.5879,48.8518 C19.5879,48.8518 23.291,49.6573 23.291,49.6573 C23.291,49.6573 26.5311,49.6573 26.5311,49.6573 C26.5311,49.6573 29.217,49.4446 30.5235,49.1395 C31.7764,48.8469 34.1687,47.8737 34.1687,47.8737 C34.1687,47.8737 37.1837,46.794 38.3346,45.745 C39.3539,44.8159 40.4176,42.1778 40.4176,42.1778 C40.4176,42.1778 41.9798,38.4956 41.9798,38.4956 C41.9798,38.4956 42.6741,33.9504 42.6741,33.9504 C42.6741,33.9504 41.3433,30.1532 41.3433,30.1532 C41.3433,30.1532 40.1283,27.7367 40.1283,27.7367 C40.1283,27.7367 39.7233,24.1696 39.7233,24.1696 C39.7233,24.1696 38.7975,22.4436 38.7975,22.4436 C38.7975,22.4436 36.3095,20.8902 36.3095,20.8902 C36.3095,20.8902 34.5158,20.6025 34.5158,20.6025 C34.5158,20.6025 33.1272,20.545 33.1272,20.545 C33.1272,20.545 32.7222,20.4874 32.7222,20.4874 C32.7222,20.4874 30.292,21.7532 30.292,21.7532 C30.292,21.7532 26.2418,22.2134 26.2418,22.2134 C26.2418,22.2134 25.3161,21.8107 25.3161,21.8107 C25.3161,21.8107 24.6796,22.4436 24.6796,22.4436 C24.6796,22.4436 25.9525,23.134 25.9525,23.134 C25.9525,23.134 28.672,23.7093 28.672,23.7093 C28.672,23.7093 31.2757,22.3861 31.2757,22.3861 C31.2757,22.3861 32.6643,21.6381 32.6643,21.6381 C32.6643,21.6381 34.2265,21.5806 34.2265,21.5806 C34.2265,21.5806 37.351,22.6737 37.351,22.6737 C37.351,22.6737 38.5082,23.8819 38.5082,23.8819 C38.5082,23.8819 39.2025,25.9532 39.2025,25.9532 C39.2025,25.9532 39.3761,28.0819 39.3761,28.0819 C39.3761,28.0819 40.4754,30.2107 40.4754,30.2107 C40.4754,30.2107 41.4012,33.4326 41.4012,33.4326 C41.4012,33.4326 41.4012,36.4819 41.4012,36.4819 C41.4012,36.4819 40.0126,41.6025 40.0126,41.6025 C40.0126,41.6025 37.2353,44.3066 37.2353,44.3066 C37.2353,44.3066 33.8794,45.3422 33.8794,45.3422 C33.8794,45.3422 30.9285,46.2628 30.9285,46.2628 C30.9285,46.2628 28.2669,46.3778 28.2669,46.3778 C28.2669,46.3778 25.2582,46.1477 25.2582,46.1477 C25.2582,46.1477 23.5108,46.4085 22.6545,46.2628 C21.3378,46.0387 19.922,45.7169 18.8357,45.0546 C17.6226,44.3148 16.5213,41.4874 16.5213,41.4874 C16.5213,41.4874 14.2648,37.9778 14.2648,37.9778 C14.2648,37.9778 11.8346,34.7559 11.8346,34.7559 C11.8346,34.7559 10.446,33.0874 10.446,33.0874 C10.446,33.0874 11.8925,30.9011 11.8925,30.9011 C11.8925,30.9011 13.5704,29.5203 13.5704,29.5203 C13.5704,29.5203 15.1905,29.0025 15.1905,29.0025 C15.1905,29.0025 15.9427,28.7148 15.9427,28.7148 C15.9427,28.7148 14.6698,28.3696 14.6698,28.3696 C14.6698,28.3696 11.8925,28.197 11.8925,28.197 C11.8925,28.197 10.7932,28.7148 10.7932,28.7148 C10.7932,28.7148 10.0988,30.2682 10.0988,30.2682 C10.0988,30.2682 9.80953,31.8217 9.80953,31.8217 C9.80953,31.8217 9.46237,33.145 9.46237,33.145 Z" style="stroke:#323232;stroke-opacity:1;stroke-width:1;stroke-linejoin:miter;stroke-miterlimit:2;stroke-linecap:round;fill-rule:evenodd;fill:#ffffff;fill-opacity:0.501961;"/>
        </g>
    </g>
</svg>
